#!OML:ASF F:\twosubjects\two\Thursday\Session 1\Rory.ASF
:FULLY-SPECIFIED
:DEGREES
393
root 8.34284 18.5284 -1.03055 5.55045 10.2459 2.4938
lowerback -3.0008 1.67153 -1.66643
upperback -0.200393 2.30602 -1.29272
thorax 1.46317 1.14536 -0.294768
lowerneck -9.05547 0.626707 3.0057
upperneck 27.5042 -0.905404 4.79092
head 10.2866 0.481043 1.08878
rclavicle 1.72011e-014 -6.06293e-015
rhumerus 28.7186 8.2515 -88.4865
rradius 48.0071
rwrist -3.05492
rhand -53.9058 26.1666
rfingers 7.12502
rthumb -26.3331 -2.02533
lclavicle 1.72011e-014 -6.06293e-015
lhumerus 22.3606 -8.39524 81.1332
lradius 49.8464
lwrist 6.42272
lhand -26.798 59.8207
lfingers 7.12502
lthumb -0.22495 1169.8
rfemur -10.3096 4.45979 16.6732
rtibia 24.8463
rfoot -18.2798 -23.0988
rtoes -0.693373
lfemur -5.15111 -4.41321 -18.4712
ltibia 15.5523
lfoot -14.4094 -2.66046
ltoes -2.10976
394
root 8.34196 18.5269 -1.0228 5.49371 10.2458 2.45646
lowerback -2.97922 1.69228 -1.66267
upperback -0.217953 2.33193 -1.25185
thorax 1.43134 1.15844 -0.255029
lowerneck -9.14058 0.68339 2.99421
upperneck 27.4697 -0.836747 4.83273
head 10.29 0.51647 1.11341
rclavicle -3.68683e-015 -1.78906e-015
rhumerus 29.0855 8.05421 -88.5879
rradius 47.1398
rwrist -2.47192
rhand -53.7001 25.3709
rfingers 7.12502
rthumb -26.1362 -2.8503
lclavicle -3.68683e-015 -1.78906e-015
lhumerus 22.5131 -8.35885 81.1424
lradius 49.2342
lwrist 5.98588
lhand -25.6892 58.2903
lfingers 7.12502
lthumb 0.845968 1168.27
rfemur -10.1853 4.53373 16.7109
rtibia 24.74
rfoot -18.3413 -23.0777
rtoes -0.583722
lfemur -5.16998 -4.57131 -18.4384
ltibia 15.7704
lfoot -14.6707 -2.50651
ltoes -2.13664
395
root 8.34554 18.5331 -1.01486 5.44621 10.3099 2.576
lowerback -2.97109 1.70688 -1.75708
upperback -0.243023 2.35368 -1.24508
thorax 1.39685 1.16903 -0.195321
lowerneck -9.23984 0.704588 2.9844
upperneck 27.6145 -0.799476 4.77394
head 10.3619 0.53175 1.10163
rclavicle -1.89436e-014 6.36111e-015
rhumerus 29.3693 7.89041 -88.5171
rradius 46.4425
rwrist -2.23808
rhand -53.5438 24.5483
rfingers 7.12502
rthumb -25.9866 -3.69492
lclavicle -1.89436e-014 6.36111e-015
lhumerus 22.748 -8.4334 81.1874
lradius 48.6776
lwrist 5.90389
lhand -25.6217 57.2895
lfingers 7.12502
lthumb 0.911146 1167.27
rfemur -9.99838 4.51542 16.5638
rtibia 24.5823
rfoot -18.3809 -23.0562
rtoes -0.832686
lfemur -5.12989 -4.5648 -18.5985
ltibia 16.0445
lfoot -14.7121 -2.45606
ltoes -3.22853
396
root 8.34597 18.5394 -1.00762 5.4458 10.415 2.57985
lowerback -3.13283 1.71034 -1.71121
upperback -0.225053 2.36108 -1.2205
thorax 1.50661 1.17208 -0.189694
lowerneck -9.3222 0.725315 3.01939
upperneck 27.7737 -0.729469 4.56285
head 10.4345 0.549187 1.03159
rclavicle 5.77066e-014 -2.98177e-016
rhumerus 29.656 7.67012 -88.5202
rradius 45.8408
rwrist -2.21258
rhand -54.0654 25.2844
rfingers 7.12502
rthumb -26.4859 -2.88453
lclavicle 5.77066e-014 -2.98177e-016
lhumerus 23.285 -8.73855 80.9838
lradius 47.9386
lwrist 6.38209
lhand -27.5375 57.4545
lfingers 7.12502
lthumb -0.939266 1167.43
rfemur -9.86901 4.51139 16.5825
rtibia 24.412
rfoot -18.1862 -23.2881
rtoes -1.65991
lfemur -5.191 -4.45392 -18.595
ltibia 16.3206
lfoot -14.7284 -2.61365
ltoes -3.15747
397
root 8.34103 18.5401 -1.00371 5.42034 10.4644 2.48199
lowerback -3.21799 1.76144 -1.61687
upperback -0.220798 2.42701 -1.15716
thorax 1.55925 1.20503 -0.171687
lowerneck -9.52107 0.673504 2.81637
upperneck 27.9431 -0.791887 4.61288
head 10.5366 0.512624 1.08134
rclavicle 9.50439e-015 -5.66536e-015
rhumerus 30.1074 7.50192 -88.2998
rradius 45.0175
rwrist -2.25875
rhand -54.9898 25.6554
rfingers 7.12502
rthumb -27.3704 -2.37708
lclavicle 9.50439e-015 -5.66536e-015
lhumerus 23.5651 -8.75043 81.1051
lradius 47.3122
lwrist 6.41887
lhand -28.4698 57.6294
lfingers 7.12502
lthumb -1.83961 1167.6
rfemur -9.75272 4.67149 16.7411
rtibia 24.2368
rfoot -18.0969 -23.5411
rtoes -1.46188
lfemur -5.33144 -4.57494 -18.4573
ltibia 16.6067
lfoot -14.891 -2.61386
ltoes -2.25473
398
root 8.33589 18.5395 -1.00172 5.29605 10.4766 2.30516
lowerback -3.13357 1.77981 -1.46265
upperback -0.261876 2.44183 -1.07784
thorax 1.47266 1.21387 -0.179678
lowerneck -9.80621 0.703555 2.74667
upperneck 28.2429 -0.783293 4.68963
head 10.7058 0.529745 1.1292
rclavicle -2.22841e-014 1.05356e-014
rhumerus 30.6262 7.45685 -88.1527
rradius 44.0435
rwrist -2.25581
rhand -54.8496 23.8233
rfingers 7.12502
rthumb -27.2363 -4.23029
lclavicle -2.22841e-014 1.05356e-014
lhumerus 23.2703 -8.10181 81.7218
lradius 47.1553
lwrist 5.44627
lhand -27.2245 56.7407
lfingers 7.12502
lthumb -0.636912 1166.72
rfemur -9.56942 4.97871 16.9763
rtibia 24.0916
rfoot -18.2314 -23.6952
rtoes -0.607559
lfemur -5.32908 -4.70898 -18.254
ltibia 16.8181
lfoot -15.0367 -2.54139
ltoes -2.31942
399
root 8.33536 18.5381 -0.999288 5.23744 10.5206 2.22051
lowerback -3.14481 1.77038 -1.3342
upperback -0.303943 2.42393 -1.05554
thorax 1.44027 1.20597 -0.229758
lowerneck -10.0118 0.756163 2.87599
upperneck 28.4774 -0.727712 4.58637
head 10.8346 0.565451 1.08201
rclavicle -1.64137e-014 7.90169e-015
rhumerus 31.0493 7.34845 -88.1481
rradius 43.2715
rwrist -2.08141
rhand -54.1057 21.4789
rfingers 7.12502
rthumb -26.5245 -6.68425
lclavicle -1.64137e-014 7.90169e-015
lhumerus 24.3905 -8.99692 80.6038
lradius 45.8524
lwrist 6.42721
lhand -26.0487 55.9427
lfingers 7.12502
lthumb 0.498673 1165.92
rfemur -9.46968 5.02111 17.076
rtibia 24.0249
rfoot -18.2251 -23.7393
rtoes -0.786703
lfemur -5.31303 -4.84536 -18.1527
ltibia 16.8758
lfoot -15.0552 -2.54009
ltoes -2.61098
400
root 8.33042 18.5378 -0.989336 5.12781 10.6683 2.28354
lowerback -3.12852 1.7555 -1.48569
upperback -0.350821 2.40757 -1.01969
thorax 1.37538 1.19734 -0.110763
lowerneck -10.0478 0.736611 2.91046
upperneck 28.7174 -0.747803 4.49598
head 10.9326 0.556885 1.04557
rclavicle 1.0034e-014 4.09993e-015
rhumerus 31.2392 7.27122 -87.9418
rradius 42.7316
rwrist -1.95958
rhand -53.3941 20.6866
rfingers 7.12502
rthumb -25.8432 -7.57762
lclavicle 1.0034e-014 4.09993e-015
lhumerus 24.6152 -9.02568 80.5914
lradius 45.1238
lwrist 6.10426
lhand -25.581 55.6034
lfingers 7.12502
lthumb 0.95041 1165.58
rfemur -9.25411 4.92969 17.0639
rtibia 24.008
rfoot -18.1396 -23.8968
rtoes -0.98486
lfemur -5.1863 -4.96703 -18.1713
ltibia 16.8546
lfoot -14.8873 -2.64542
ltoes -1.65184
401
root 8.32071 18.5353 -0.976341 4.93674 10.8295 2.31946
lowerback -3.21813 1.77283 -1.61115
upperback -0.295274 2.43814 -1.01952
thorax 1.47704 1.21096 -0.0350595
lowerneck -10.1102 0.684747 2.86851
upperneck 29.0217 -0.853069 4.58879
head 11.0635 0.525416 1.07993
rclavicle 3.38819e-014 -2.03754e-014
rhumerus 31.5188 7.01065 -87.8711
rradius 42.0462
rwrist -1.80574
rhand -52.7217 21.5664
rfingers 7.12502
rthumb -25.1991 -6.78996
lclavicle 3.38819e-014 -2.03754e-014
lhumerus 24.0844 -8.29611 81.4926
lradius 45.1529
lwrist 4.73837
lhand -25.192 55.257
lfingers 7.12502
lthumb 1.32618 1165.23
rfemur -8.94222 5.13801 17.1297
rtibia 24.0176
rfoot -18.3262 -24.227
rtoes -0.0540633
lfemur -4.92729 -5.13192 -18.1708
ltibia 16.8026
lfoot -15.0015 -2.60286
ltoes -1.00176
402
root 8.31721 18.5307 -0.970762 4.82721 10.8954 2.30728
lowerback -3.51699 1.7924 -1.54135
upperback -0.188852 2.47198 -1.08442
thorax 1.7591 1.22623 -0.126254
lowerneck -10.1109 0.662707 2.8253
upperneck 29.1073 -0.942795 4.8144
head 11.1001 0.509715 1.16057
rclavicle 3.66649e-014 -1.3418e-014
rhumerus 31.9342 6.64194 -88.1414
rradius 41.2878
rwrist -1.48897
rhand -52.2022 21.2753
rfingers 7.12502
rthumb -24.7013 -7.15022
lclavicle 3.66649e-014 -1.3418e-014
lhumerus 24.9118 -8.99889 80.7102
lradius 44.4804
lwrist 5.45954
lhand -25.5446 56.0708
lfingers 7.12502
lthumb 0.985608 1166.05
rfemur -8.78906 5.32257 17.1947
rtibia 24.0431
rfoot -18.5158 -24.4288
rtoes 0.712609
lfemur -4.71704 -5.10989 -18.1687
ltibia 16.7296
lfoot -15.3047 -2.50715
ltoes -2.38741
403
root 8.3182 18.5289 -0.970796 4.80646 10.9403 2.34984
lowerback -3.71972 1.75051 -1.53343
upperback -0.181401 2.42149 -1.11594
thorax 1.88243 1.20034 -0.158315
lowerneck -10.0159 0.692567 2.7416
upperneck 29.0576 -0.91563 4.9579
head 11.0624 0.527527 1.22915
rclavicle 1.45781e-014 4.67144e-015
rhumerus 32.2945 6.61403 -88.2727
rradius 40.6355
rwrist -1.42251
rhand -51.7673 19.9335
rfingers 7.12502
rthumb -24.2844 -8.54836
lclavicle 1.45781e-014 4.67144e-015
lhumerus 25.407 -9.30566 80.225
lradius 43.7241
lwrist 5.70453
lhand -26.5557 56.9727
lfingers 7.12502
lthumb 0.0090238 1166.95
rfemur -8.76718 5.4531 17.1512
rtibia 24.0791
rfoot -18.5158 -24.6487
rtoes 0.42194
lfemur -4.64646 -4.74048 -18.2267
ltibia 16.6505
lfoot -15.1157 -2.74783
ltoes -3.35033
